<?xml version="1.0" encoding="UTF-8"?>
<svg xmlns="http://www.w3.org/2000/svg" version="1.1" viewBox="0 0 64 64">
  <defs>
    <style>
      .cls-1 {
        fill: #148d82;
        fill-rule: evenodd;
      }
    </style>
  </defs>
  <!-- Generator: Adobe Illustrator 28.6.0, SVG Export Plug-In . SVG Version: 1.2.0 Build 709)  -->
  <g>
    <g id="_圖層_1" data-name="圖層_1">
      <g id="_圖層_1-2" data-name="_圖層_1">
        <path class="cls-1" d="M34.7,24c0-1.5-1.2-2.7-2.7-2.7s-2.7,1.2-2.7,2.7v5.3h-5.3c-1.5,0-2.7,1.2-2.7,2.7s1.2,2.7,2.7,2.7h5.3v5.3c0,1.5,1.2,2.7,2.7,2.7s2.7-1.2,2.7-2.7v-5.3h5.3c1.5,0,2.7-1.2,2.7-2.7s-1.2-2.7-2.7-2.7h-5.3v-5.3ZM5.3,32c0-14.7,11.9-26.7,26.7-26.7s26.7,11.9,26.7,26.7-11.9,26.7-26.7,26.7S5.3,46.7,5.3,32Z"/>
      </g>
    </g>
  </g>
</svg>